<svg width="98" height="97" viewBox="0 0 98 97" fill="none" xmlns="http://www.w3.org/2000/svg">
<path d="M97.0041 48.3883C97.0041 59.7675 92.98 70.7801 85.6434 79.4785C78.3069 88.1768 68.1306 94.0004 56.9144 95.9194C45.6981 97.8383 34.1646 95.7289 24.3537 89.9643C14.5427 84.1997 7.08637 75.1512 3.30345 64.4192C-0.479467 53.6872 -0.345262 41.9631 3.68233 31.3206C7.70993 20.678 15.3714 11.8025 25.3118 6.264C35.2521 0.72546 46.8309 -1.11935 58.0003 1.05584C69.1696 3.23103 79.2099 9.28607 86.3455 18.1501L78.0441 24.8327C72.4855 17.9276 64.6641 13.2107 55.9632 11.5162C47.2622 9.82176 38.2423 11.2589 30.4988 15.5734C22.7552 19.8879 16.7869 26.8019 13.6494 35.0925C10.5119 43.3831 10.4073 52.5161 13.3542 60.8764C16.3011 69.2366 22.1096 76.2854 29.7524 80.7761C37.3951 85.2667 46.3798 86.9099 55.1172 85.4151C63.8547 83.9202 71.782 79.3836 77.4972 72.6076C83.2124 65.8316 86.3472 57.2527 86.3472 48.3883H97.0041Z" fill="url(#paint0_linear_118_2)"/>
<path d="M33.3528 52.006V49.8683L39.7076 40.7734H42.8752V49.6351H44.5854V52.006H42.8752V54.7655H40.1545V52.006H33.3528ZM40.3294 43.6884L36.3456 49.6351H40.3294V43.6884ZM48.805 54.9015C48.3127 54.9015 47.9046 54.7525 47.5807 54.4546C47.2698 54.1436 47.1143 53.7614 47.1143 53.308C47.1143 52.8545 47.2698 52.4788 47.5807 52.1809C47.9046 51.8699 48.3127 51.7144 48.805 51.7144C49.2844 51.7144 49.6795 51.8699 49.9905 52.1809C50.3014 52.4788 50.4569 52.8545 50.4569 53.308C50.4569 53.7614 50.3014 54.1436 49.9905 54.4546C49.6795 54.7525 49.2844 54.9015 48.805 54.9015ZM55.6799 47.2642C54.3843 46.5905 53.7366 45.5476 53.7366 44.1354C53.7366 43.4358 53.9115 42.801 54.2613 42.2309C54.624 41.6479 55.1617 41.188 55.8742 40.8511C56.5998 40.5013 57.4807 40.3264 58.5172 40.3264C59.5536 40.3264 60.4281 40.5013 61.1407 40.8511C61.8662 41.188 62.4039 41.6479 62.7537 42.2309C63.1164 42.801 63.2978 43.4358 63.2978 44.1354C63.2978 44.848 63.1229 45.4763 62.7731 46.0204C62.4233 46.5516 61.9569 46.9662 61.3739 47.2642C62.0865 47.5751 62.6436 48.0286 63.0452 48.6245C63.4468 49.2205 63.6476 49.9266 63.6476 50.7428C63.6476 51.6238 63.4209 52.3946 62.9675 53.0554C62.527 53.7031 61.918 54.2019 61.1407 54.5517C60.3634 54.9015 59.4889 55.0764 58.5172 55.0764C57.5455 55.0764 56.671 54.9015 55.8937 54.5517C55.1293 54.2019 54.5204 53.7031 54.0669 53.0554C53.6264 52.3946 53.4062 51.6238 53.4062 50.7428C53.4062 49.9266 53.607 49.2205 54.0086 48.6245C54.4102 48.0156 54.9673 47.5622 55.6799 47.2642ZM60.6549 44.5241C60.6549 43.8892 60.4605 43.3969 60.0719 43.0471C59.6962 42.6973 59.1779 42.5224 58.5172 42.5224C57.8694 42.5224 57.3512 42.6973 56.9625 43.0471C56.5868 43.3969 56.3989 43.8957 56.3989 44.5435C56.3989 45.1265 56.5933 45.5929 56.9819 45.9427C57.3836 46.2925 57.8953 46.4674 58.5172 46.4674C59.1391 46.4674 59.6508 46.2925 60.0524 45.9427C60.4541 45.58 60.6549 45.1071 60.6549 44.5241ZM58.5172 48.4496C57.7787 48.4496 57.1763 48.6375 56.7099 49.0132C56.2564 49.3889 56.0297 49.9266 56.0297 50.6262C56.0297 51.274 56.2499 51.8051 56.6904 52.2197C57.1439 52.6213 57.7528 52.8222 58.5172 52.8222C59.2816 52.8222 59.884 52.6149 60.3245 52.2003C60.765 51.7857 60.9852 51.261 60.9852 50.6262C60.9852 49.9395 60.7585 49.4083 60.3051 49.0326C59.8516 48.644 59.2557 48.4496 58.5172 48.4496Z" fill="white"/>
<defs>
<linearGradient id="paint0_linear_118_2" x1="48.7825" y1="0.166626" x2="48.7825" y2="96.61" gradientUnits="userSpaceOnUse">
<stop stop-color="#15B9B9"/>
<stop offset="1" stop-color="#3C1DFF"/>
</linearGradient>
</defs>
</svg>
