<svg width="98" height="97" viewBox="0 0 98 97" fill="none" xmlns="http://www.w3.org/2000/svg">
<path d="M97.0041 48.3883C97.0041 57.9256 94.176 67.2488 88.8773 75.1788C83.5787 83.1088 76.0475 89.2895 67.2361 92.9393C58.4247 96.5891 48.729 97.544 39.3749 95.6834C30.0208 93.8228 21.4285 89.2301 14.6846 82.4862C7.94067 75.7422 3.348 67.15 1.48736 57.7959C-0.373287 48.4418 0.581663 38.746 4.23145 29.9347C7.88123 21.1233 14.0619 13.5921 21.9919 8.29344C29.922 2.99478 39.2451 0.166626 48.7825 0.166626L48.7825 10.8235C41.3529 10.8235 34.0901 13.0267 27.9126 17.1543C21.7351 21.282 16.9203 27.1488 14.0771 34.0129C11.234 40.8769 10.4901 48.43 11.9395 55.7168C13.3889 63.0037 16.9666 69.6971 22.2202 74.9506C27.4737 80.2041 34.1671 83.7818 41.4539 85.2313C48.7408 86.6807 56.2938 85.9368 63.1579 83.0936C70.0219 80.2504 75.8888 75.4357 80.0164 69.2582C84.1441 63.0807 86.3472 55.8179 86.3472 48.3883H97.0041Z" fill="url(#paint0_linear_118_2)"/>
<path d="M33.3528 52.006V49.8683L39.7076 40.7734H42.8752V49.6351H44.5854V52.006H42.8752V54.7655H40.1545V52.006H33.3528ZM40.3294 43.6884L36.3456 49.6351H40.3294V43.6884ZM48.805 54.9015C48.3127 54.9015 47.9046 54.7525 47.5807 54.4546C47.2698 54.1436 47.1143 53.7614 47.1143 53.308C47.1143 52.8545 47.2698 52.4788 47.5807 52.1809C47.9046 51.8699 48.3127 51.7144 48.805 51.7144C49.2844 51.7144 49.6795 51.8699 49.9905 52.1809C50.3014 52.4788 50.4569 52.8545 50.4569 53.308C50.4569 53.7614 50.3014 54.1436 49.9905 54.4546C49.6795 54.7525 49.2844 54.9015 48.805 54.9015ZM62.8314 42.95H56.535V46.2731C56.807 45.9362 57.1957 45.6642 57.701 45.4569C58.2063 45.2366 58.7439 45.1265 59.314 45.1265C60.3504 45.1265 61.199 45.3532 61.8597 45.8067C62.5205 46.2601 62.9998 46.8431 63.2978 47.5557C63.5958 48.2553 63.7448 49.0067 63.7448 49.81C63.7448 51.2999 63.3173 52.4983 62.4622 53.4052C61.6201 54.3121 60.4152 54.7655 58.8476 54.7655C57.3706 54.7655 56.1916 54.3963 55.3107 53.6578C54.4297 52.9193 53.9309 51.9541 53.8143 50.7622H56.4572C56.5738 51.2804 56.833 51.695 57.2346 52.006C57.6492 52.3169 58.1739 52.4724 58.8087 52.4724C59.5731 52.4724 60.1496 52.2327 60.5383 51.7533C60.9269 51.274 61.1213 50.6391 61.1213 49.8488C61.1213 49.0456 60.9205 48.4367 60.5188 48.0221C60.1302 47.5946 59.5536 47.3808 58.7893 47.3808C58.2451 47.3808 57.7917 47.5168 57.4289 47.7889C57.0662 48.061 56.807 48.4237 56.6516 48.8772H54.0475V40.5596H62.8314V42.95Z" fill="white"/>
<defs>
<linearGradient id="paint0_linear_118_2" x1="48.7825" y1="0.166626" x2="48.7825" y2="96.61" gradientUnits="userSpaceOnUse">
<stop stop-color="#15B9B9"/>
<stop offset="1" stop-color="#3C1DFF"/>
</linearGradient>
</defs>
</svg>
