<svg width="98" height="98" viewBox="0 0 98 98" fill="none" xmlns="http://www.w3.org/2000/svg">
<path d="M97.0024 49.1619C97.0024 57.092 95.0467 64.8997 91.3085 71.8934C87.5703 78.8871 82.1649 84.851 75.5713 89.2567C68.9776 93.6624 61.3992 96.374 53.5073 97.1513C45.6154 97.9286 37.6536 96.7476 30.3271 93.7129C23.0007 90.6782 16.5357 85.8834 11.5049 79.7534C6.4741 73.6233 3.03273 66.3472 1.48565 58.5694C-0.061438 50.7917 0.333504 42.7525 2.63549 35.1638C4.93748 27.5752 9.07545 20.6714 14.6829 15.064L22.2185 22.5996C17.8503 26.9678 14.6268 32.3458 12.8335 38.2574C11.0403 44.1689 10.7326 50.4315 11.9378 56.4904C13.143 62.5492 15.8238 68.2174 19.7428 72.9927C23.6618 77.768 28.698 81.5031 34.4053 83.8672C40.1127 86.2312 46.3149 87.1512 52.4627 86.5457C58.6106 85.9402 64.5142 83.8279 69.6506 80.3958C74.7871 76.9637 78.9978 72.3179 81.9099 66.8698C84.822 61.4216 86.3455 55.3394 86.3455 49.1619H97.0024Z" fill="url(#paint0_linear_118_3)"/>
<path d="M33.3511 52.7796V50.642L39.7059 41.5471H42.8735V50.4088H44.5837V52.7796H42.8735V55.5392H40.1528V52.7796H33.3511ZM40.3277 44.4621L36.3439 50.4088H40.3277V44.4621ZM48.8033 55.6752C48.311 55.6752 47.9029 55.5262 47.579 55.2282C47.2681 54.9173 47.1126 54.5351 47.1126 54.0817C47.1126 53.6282 47.2681 53.2525 47.579 52.9545C47.9029 52.6436 48.311 52.4881 48.8033 52.4881C49.2827 52.4881 49.6778 52.6436 49.9887 52.9545C50.2997 53.2525 50.4551 53.6282 50.4551 54.0817C50.4551 54.5351 50.2997 54.9173 49.9887 55.2282C49.6778 55.5262 49.2827 55.6752 48.8033 55.6752ZM53.3073 48.2711C53.3073 46.0297 53.7089 44.2743 54.5122 43.0046C55.3284 41.7349 56.6758 41.1001 58.5543 41.1001C60.4329 41.1001 61.7738 41.7349 62.5771 43.0046C63.3933 44.2743 63.8014 46.0297 63.8014 48.2711C63.8014 50.5254 63.3933 52.2938 62.5771 53.5764C61.7738 54.859 60.4329 55.5003 58.5543 55.5003C56.6758 55.5003 55.3284 54.859 54.5122 53.5764C53.7089 52.2938 53.3073 50.5254 53.3073 48.2711ZM61.1196 48.2711C61.1196 47.3124 61.0548 46.5091 60.9252 45.8613C60.8086 45.2006 60.5625 44.6629 60.1868 44.2483C59.824 43.8338 59.2799 43.6265 58.5543 43.6265C57.8288 43.6265 57.2782 43.8338 56.9025 44.2483C56.5397 44.6629 56.2936 45.2006 56.164 45.8613C56.0474 46.5091 55.9891 47.3124 55.9891 48.2711C55.9891 49.2557 56.0474 50.0849 56.164 50.7586C56.2806 51.4193 56.5268 51.9569 56.9025 52.3715C57.2782 52.7732 57.8288 52.974 58.5543 52.974C59.2799 52.974 59.8305 52.7732 60.2062 52.3715C60.5819 51.9569 60.8281 51.4193 60.9447 50.7586C61.0613 50.0849 61.1196 49.2557 61.1196 48.2711Z" fill="white"/>
<defs>
<linearGradient id="paint0_linear_118_3" x1="48.7808" y1="0.940186" x2="48.7808" y2="97.3835" gradientUnits="userSpaceOnUse">
<stop stop-color="#15B9B9"/>
<stop offset="1" stop-color="#3C1DFF"/>
</linearGradient>
</defs>
</svg>
