<svg width="98" height="97" viewBox="0 0 98 97" fill="none" xmlns="http://www.w3.org/2000/svg">
<path d="M97.0041 48.3883C97.0041 57.4893 94.4287 66.4045 89.5754 74.1034C84.7221 81.8023 77.7892 87.9707 69.578 91.8955C61.3668 95.8203 52.2126 97.3413 43.1734 96.2826C34.1342 95.224 25.5791 91.629 18.4969 85.9132C11.4148 80.1973 6.09474 72.594 3.15171 63.982C0.208675 55.37 -0.237183 46.101 1.86567 37.2463C3.96852 28.3916 8.53423 20.3127 15.0351 13.9435C21.5359 7.5743 29.7064 3.17477 38.6023 1.25345L40.8521 11.6702C33.9222 13.1669 27.5573 16.5941 22.4932 21.5558C17.429 26.5174 13.8723 32.8108 12.2342 39.7087C10.5961 46.6065 10.9434 53.8271 13.236 60.5358C15.5287 67.2446 19.673 73.1676 25.19 77.6202C30.707 82.0729 37.3714 84.8734 44.413 85.6981C51.4545 86.5227 58.5857 85.3379 64.9822 82.2805C71.3788 79.223 76.7795 74.4179 80.5602 68.4204C84.3409 62.4229 86.3472 55.478 86.3472 48.3883H97.0041Z" fill="url(#paint0_linear_118_2)"/>
<path d="M33.3528 52.006V49.8683L39.7076 40.7734H42.8752V49.6351H44.5854V52.006H42.8752V54.7655H40.1545V52.006H33.3528ZM40.3294 43.6884L36.3456 49.6351H40.3294V43.6884ZM48.805 54.9015C48.3127 54.9015 47.9046 54.7525 47.5807 54.4546C47.2698 54.1436 47.1143 53.7614 47.1143 53.308C47.1143 52.8545 47.2698 52.4788 47.5807 52.1809C47.9046 51.8699 48.3127 51.7144 48.805 51.7144C49.2844 51.7144 49.6795 51.8699 49.9905 52.1809C50.3014 52.4788 50.4569 52.8545 50.4569 53.308C50.4569 53.7614 50.3014 54.1436 49.9905 54.4546C49.6795 54.7525 49.2844 54.9015 48.805 54.9015ZM53.3479 44.3297C53.4127 43.0342 53.8661 42.0366 54.7082 41.337C55.5633 40.6244 56.684 40.2681 58.0702 40.2681C59.016 40.2681 59.8257 40.4366 60.4994 40.7734C61.1731 41.0973 61.6784 41.5443 62.0152 42.1143C62.365 42.6714 62.5399 43.3062 62.5399 44.0188C62.5399 44.835 62.3261 45.5281 61.8986 46.0982C61.484 46.6553 60.9852 47.031 60.4022 47.2253V47.3031C61.1537 47.5363 61.7367 47.9508 62.1512 48.5468C62.5788 49.1428 62.7925 49.9071 62.7925 50.8399C62.7925 51.6173 62.6112 52.3104 62.2484 52.9193C61.8986 53.5282 61.3739 54.0076 60.6743 54.3574C59.9877 54.6942 59.1585 54.8627 58.1868 54.8627C56.7228 54.8627 55.5309 54.4934 54.6111 53.755C53.6912 53.0165 53.2054 51.9282 53.1536 50.4901H55.7965C55.8224 51.125 56.0362 51.6367 56.4378 52.0254C56.8524 52.4011 57.416 52.589 58.1285 52.589C58.7893 52.589 59.2945 52.4076 59.6443 52.0448C60.0071 51.6691 60.1885 51.1897 60.1885 50.6067C60.1885 49.8294 59.9423 49.2723 59.45 48.9355C58.9577 48.5986 58.1933 48.4302 57.1568 48.4302H56.5933V46.1953H57.1568C58.9965 46.1953 59.9164 45.58 59.9164 44.3492C59.9164 43.7921 59.748 43.3581 59.4111 43.0471C59.0872 42.7362 58.6144 42.5807 57.9925 42.5807C57.3836 42.5807 56.9107 42.7491 56.5738 43.086C56.2499 43.4099 56.0621 43.8245 56.0103 44.3297H53.3479Z" fill="white"/>
<defs>
<linearGradient id="paint0_linear_118_2" x1="48.7825" y1="0.166626" x2="48.7825" y2="96.61" gradientUnits="userSpaceOnUse">
<stop stop-color="#15B9B9"/>
<stop offset="1" stop-color="#3C1DFF"/>
</linearGradient>
</defs>
</svg>
