<svg width="62" height="62" viewBox="0 0 62 62" fill="none" xmlns="http://www.w3.org/2000/svg">
<g filter="url(#filter0_d_122_4)">
<circle cx="30.7656" cy="27.0984" r="26.4621" fill="url(#paint0_linear_122_4)"/>
</g>
<g clip-path="url(#clip0_122_4)" filter="url(#filter1_d_122_4)">
<path d="M23.8302 32.1072V21.7041C23.8302 21.091 24.0738 20.503 24.5073 20.0694C24.9409 19.6359 25.5289 19.3923 26.142 19.3923H36.9303C37.1347 19.3923 37.3307 19.4735 37.4752 19.618C37.6197 19.7626 37.7009 19.9586 37.7009 20.1629V34.0337C37.7009 34.238 37.6197 34.434 37.4752 34.5785C37.3307 34.7231 37.1347 34.8042 36.9303 34.8042H26.5273C25.812 34.8042 25.126 34.5201 24.6202 34.0143C24.1144 33.5085 23.8302 32.8225 23.8302 32.1072V32.1072ZM36.1597 33.2631V30.9513H26.5273C26.2207 30.9513 25.9267 31.0731 25.7099 31.2898C25.4932 31.5066 25.3714 31.8006 25.3714 32.1072C25.3714 32.4137 25.4932 32.7077 25.7099 32.9245C25.9267 33.1413 26.2207 33.2631 26.5273 33.2631H36.1597ZM25.3714 29.6698C25.7326 29.4983 26.1275 29.4095 26.5273 29.4101H36.1597V20.9335H26.142C25.9376 20.9335 25.7416 21.0147 25.5971 21.1592C25.4526 21.3037 25.3714 21.4997 25.3714 21.7041V29.6698Z" fill="white"/>
</g>
<defs>
<filter id="filter0_d_122_4" x="0.303467" y="0.63623" width="60.9243" height="60.9242" filterUnits="userSpaceOnUse" color-interpolation-filters="sRGB">
<feFlood flood-opacity="0" result="BackgroundImageFix"/>
<feColorMatrix in="SourceAlpha" type="matrix" values="0 0 0 0 0 0 0 0 0 0 0 0 0 0 0 0 0 0 127 0" result="hardAlpha"/>
<feOffset dy="4"/>
<feGaussianBlur stdDeviation="2"/>
<feComposite in2="hardAlpha" operator="out"/>
<feColorMatrix type="matrix" values="0 0 0 0 0 0 0 0 0 0 0 0 0 0 0 0 0 0 0.25 0"/>
<feBlend mode="normal" in2="BackgroundImageFix" result="effect1_dropShadow_122_4"/>
<feBlend mode="normal" in="SourceGraphic" in2="effect1_dropShadow_122_4" result="shape"/>
</filter>
<filter id="filter1_d_122_4" x="17.5184" y="17.8513" width="26.4943" height="26.4943" filterUnits="userSpaceOnUse" color-interpolation-filters="sRGB">
<feFlood flood-opacity="0" result="BackgroundImageFix"/>
<feColorMatrix in="SourceAlpha" type="matrix" values="0 0 0 0 0 0 0 0 0 0 0 0 0 0 0 0 0 0 127 0" result="hardAlpha"/>
<feOffset dy="4"/>
<feGaussianBlur stdDeviation="2"/>
<feComposite in2="hardAlpha" operator="out"/>
<feColorMatrix type="matrix" values="0 0 0 0 0 0 0 0 0 0 0 0 0 0 0 0 0 0 0.25 0"/>
<feBlend mode="normal" in2="BackgroundImageFix" result="effect1_dropShadow_122_4"/>
<feBlend mode="normal" in="SourceGraphic" in2="effect1_dropShadow_122_4" result="shape"/>
</filter>
<linearGradient id="paint0_linear_122_4" x1="30.7656" y1="0.63623" x2="30.7656" y2="53.5605" gradientUnits="userSpaceOnUse">
<stop stop-color="#15B9B9"/>
<stop offset="1" stop-color="#3C1DFF"/>
</linearGradient>
<clipPath id="clip0_122_4">
<rect width="18.4943" height="18.4943" fill="white" transform="translate(21.5184 17.8513)"/>
</clipPath>
</defs>
</svg>
